<mxfile host="65bd71144e">
    <diagram id="_ogkf0nuQr4NePhOWDZ8" name="Page-1">
        <mxGraphModel dx="690" dy="494" grid="1" gridSize="10" guides="1" tooltips="1" connect="1" arrows="1" fold="1" page="1" pageScale="1" pageWidth="827" pageHeight="1169" math="0" shadow="0">
            <root>
                <mxCell id="0"/>
                <mxCell id="1" parent="0"/>
                <mxCell id="2" value="Calculation for the Area of a Trapezoid" style="swimlane;" vertex="1" parent="1">
                    <mxGeometry x="109" y="250" width="610" height="380" as="geometry"/>
                </mxCell>
                <UserObject label="Enter the dimensions below..." placeholders="1" id="3">
                    <mxCell style="text;html=1;strokeColor=none;fillColor=none;align=center;verticalAlign=middle;whiteSpace=wrap;overflow=hidden;" vertex="1" parent="2">
                        <mxGeometry x="10" y="30" width="160" height="20" as="geometry"/>
                    </mxCell>
                </UserObject>
                <mxCell id="8" value="Base B" style="text;html=1;strokeColor=none;fillColor=none;align=center;verticalAlign=middle;whiteSpace=wrap;rounded=0;" vertex="1" parent="2">
                    <mxGeometry x="100" y="160" width="60" height="30" as="geometry"/>
                </mxCell>
                <mxCell id="7" value="Height&amp;nbsp;" style="text;html=1;strokeColor=none;fillColor=none;align=center;verticalAlign=middle;whiteSpace=wrap;rounded=0;" vertex="1" parent="2">
                    <mxGeometry x="100" y="230" width="60" height="30" as="geometry"/>
                </mxCell>
                <mxCell id="6" value="Base A&amp;nbsp;" style="text;html=1;strokeColor=none;fillColor=none;align=center;verticalAlign=middle;whiteSpace=wrap;rounded=0;" vertex="1" parent="2">
                    <mxGeometry x="100" y="100" width="60" height="30" as="geometry"/>
                </mxCell>
                <mxCell id="11" value="Area = [(baseA + baseB)&amp;nbsp;รท2] x height&amp;nbsp;" style="text;html=1;strokeColor=none;fillColor=none;align=center;verticalAlign=middle;whiteSpace=wrap;rounded=0;" vertex="1" parent="2">
                    <mxGeometry y="350" width="260" height="30" as="geometry"/>
                </mxCell>
                <mxCell id="12" value="" style="shape=trapezoid;perimeter=trapezoidPerimeter;whiteSpace=wrap;html=1;fixedSize=1;size=20;gradientColor=#ffffff;fillColor=none;" vertex="1" parent="2">
                    <mxGeometry x="291" y="160" width="120" height="60" as="geometry"/>
                </mxCell>
                <UserObject label="Input here...." placeholders="1" id="13">
                    <mxCell style="text;html=1;strokeColor=none;fillColor=none;align=center;verticalAlign=middle;whiteSpace=wrap;overflow=hidden;" vertex="1" parent="2">
                        <mxGeometry x="11" y="250" width="119" height="30" as="geometry"/>
                    </mxCell>
                </UserObject>
                <UserObject label="Input here...." placeholders="1" id="14">
                    <mxCell style="text;html=1;strokeColor=none;fillColor=none;align=center;verticalAlign=middle;whiteSpace=wrap;overflow=hidden;" vertex="1" parent="2">
                        <mxGeometry x="11" y="190" width="119" height="30" as="geometry"/>
                    </mxCell>
                </UserObject>
                <UserObject label="Input here...." placeholders="1" id="15">
                    <mxCell style="text;html=1;strokeColor=none;fillColor=none;align=center;verticalAlign=middle;whiteSpace=wrap;overflow=hidden;" vertex="1" parent="2">
                        <mxGeometry x="11" y="130" width="119" height="30" as="geometry"/>
                    </mxCell>
                </UserObject>
                <mxCell id="17" value="" style="endArrow=none;dashed=1;html=1;dashPattern=1 3;strokeWidth=2;entryX=0.183;entryY=-0.043;entryDx=0;entryDy=0;entryPerimeter=0;" edge="1" parent="2" target="12">
                    <mxGeometry width="50" height="50" relative="1" as="geometry">
                        <mxPoint x="313" y="220" as="sourcePoint"/>
                        <mxPoint x="361" y="190" as="targetPoint"/>
                    </mxGeometry>
                </mxCell>
                <UserObject label="a" placeholders="1" id="18">
                    <mxCell style="text;html=1;strokeColor=none;fillColor=none;align=center;verticalAlign=middle;whiteSpace=wrap;overflow=hidden;" vertex="1" parent="2">
                        <mxGeometry x="291" y="130" width="119" height="30" as="geometry"/>
                    </mxCell>
                </UserObject>
                <UserObject label="b" placeholders="1" id="19">
                    <mxCell style="text;html=1;strokeColor=none;fillColor=none;align=center;verticalAlign=middle;whiteSpace=wrap;overflow=hidden;" vertex="1" parent="2">
                        <mxGeometry x="291.5" y="220" width="119" height="30" as="geometry"/>
                    </mxCell>
                </UserObject>
                <UserObject label="height" placeholders="1" id="20">
                    <mxCell style="text;html=1;strokeColor=none;fillColor=none;align=center;verticalAlign=middle;whiteSpace=wrap;overflow=hidden;rotation=90;" vertex="1" parent="2">
                        <mxGeometry x="271" y="175" width="119" height="30" as="geometry"/>
                    </mxCell>
                </UserObject>
                <mxCell id="21" value="" style="shape=ext;double=1;rounded=0;whiteSpace=wrap;html=1;fillColor=none;gradientColor=#ffffff;" vertex="1" parent="2">
                    <mxGeometry x="80" y="290" width="100" height="30" as="geometry"/>
                </mxCell>
                <UserObject label="CALCULATE" placeholders="1" id="22">
                    <mxCell style="text;html=1;strokeColor=none;fillColor=none;align=center;verticalAlign=middle;whiteSpace=wrap;overflow=hidden;rotation=0;" vertex="1" parent="2">
                        <mxGeometry x="70.5" y="290" width="119" height="30" as="geometry"/>
                    </mxCell>
                </UserObject>
            </root>
        </mxGraphModel>
    </diagram>
</mxfile>